PathFileType	4	(X/Y/Z)	/Users/itak/Documents/Research/Walk-IL/dataset/trc/00311_00010.trc
DataRate	CameraRate	NumFrames	NumMarkers	Units	OrigDataRate	OrigDataStartFrame	OrigNumFrames
100.000000	100.000000	4	53	mm	100.000000	0	629
Frame#	Time	RPSI			LPSI			L3			STRN			T10			C7			CLAV			RBAK			LBAK			LSHO			LUPA			LAEL			LAOL			LWTS			LWPS			LFRA			LIFD			LHPS			LHTS			RSHO			RUPA			RAEL			RAOL			RWTS			RWPS			RFRA			RIFD			RHTS			RHPS			RBHD			LFHD			RFHD			LBHD			LHIP			RHIP			RASI			LASI			LKNE			LTHI			LANK			LTIP			LTOE			LMT1			LMT5			LHEE			RKNE			RTHI			RANK			RTIP			RTOE			RMT1			RMT5			RHEE			
		X1	Y1	Z1	X2	Y2	Z2	X3	Y3	Z3	X4	Y4	Z4	X5	Y5	Z5	X6	Y6	Z6	X7	Y7	Z7	X8	Y8	Z8	X9	Y9	Z9	X10	Y10	Z10	X11	Y11	Z11	X12	Y12	Z12	X13	Y13	Z13	X14	Y14	Z14	X15	Y15	Z15	X16	Y16	Z16	X17	Y17	Z17	X18	Y18	Z18	X19	Y19	Z19	X20	Y20	Z20	X21	Y21	Z21	X22	Y22	Z22	X23	Y23	Z23	X24	Y24	Z24	X25	Y25	Z25	X26	Y26	Z26	X27	Y27	Z27	X28	Y28	Z28	X29	Y29	Z29	X30	Y30	Z30	X31	Y31	Z31	X32	Y32	Z32	X33	Y33	Z33	X34	Y34	Z34	X35	Y35	Z35	X36	Y36	Z36	X37	Y37	Z37	X38	Y38	Z38	X39	Y39	Z39	X40	Y40	Z40	X41	Y41	Z41	X42	Y42	Z42	X43	Y43	Z43	X44	Y44	Z44	X45	Y45	Z45	X46	Y46	Z46	X47	Y47	Z47	X48	Y48	Z48	X49	Y49	Z49	X50	Y50	Z50	X51	Y51	Z51	X52	Y52	Z52	X53	Y53	Z53	

1	0	-1188.301879882812	1008.2001953125	-643.6796875	-1186.655639648438	1001.641174316406	-818.0073852539062	-1168.360107421875	1076.942626953125	-735.8406982421875	-912.3551635742188	1248.286010742188	-741.4908447265625	-1180.279663085938	1190.856811523438	-739.3854370117188	-1128.031127929688	1434.125244140625	-759.751220703125	-972.8383178710938	1349.362915039062	-747.6348266601562	-1183.545654296875	1299.260131835938	-680.856201171875	-1140.782470703125	1395.676879882812	-864.0967407226562	-1048.85302734375	1399.919555664062	-915.8568725585938	-1073.459838867188	1279.247436523438	-985.8241577148438	-1065.119018554688	1074.147827148438	-994.830810546875	-1131.718139648438	1063.3544921875	-939.1544799804688	-989.344970703125	855.5126953125	-930.738037109375	-1020.663513183594	840.3003540039062	-996.6668701171875	-1051.416625976562	969.6092529296875	-998.4500122070312	-983.9761962890625	668.3634033203125	-932.5394897460938	-1015.174438476562	751.8180541992188	-991.5487060546875	-944.7893676757812	768.5250854492188	-954.5827026367188	-1064.010375976562	1412.495971679688	-598.1542358398438	-1070.076171875	1353.075073242188	-530.2926025390625	-1059.968872070312	1083.1123046875	-483.3715515136719	-1109.99072265625	1076.85546875	-563.8018798828125	-946.034423828125	876.4978637695312	-577.585205078125	-996.0802612304688	854.0098266601562	-482.2951354980469	-1032.069213867188	1015.680297851562	-478.8929748535156	-962.34814453125	676.2610473632812	-570.1198120117188	-936.4461059570312	746.16748046875	-556.1148681640625	-971.8193359375	743.6808471679688	-494.813720703125	-1115.396362304688	1590.71630859375	-698.374755859375	-930.4981689453125	1639.744262695312	-793.1704711914062	-945.5424194335938	1638.576782226562	-700.970458984375	-1090.602661132812	1582.503662109375	-842.1074829101562	-1119.193359375	952.6776733398438	-913.44970703125	-1085.946166992188	958.6722412109375	-541.1917724609375	-969.3665161132812	961.7080078125	-612.6339721679688	-995.3364868164062	947.5740966796875	-860.3136596679688	-1062.908935546875	487.67333984375	-891.3685302734375	-1067.423706054688	630.658203125	-908.994384765625	-1155.165283203125	48.25707626342773	-884.3970336914062	-1117.199829101562	265.0121459960938	-897.3802490234375	-947.2352905273438	40.19116973876953	-828.70703125	-1016.773071289062	32.59115600585938	-787.0010375976562	-1033.471557617188	42.5382080078125	-899.7233276367188	-1199.905639648438	43.00399398803711	-824.0257568359375	-1048.770141601562	484.4378967285156	-567.4609375	-1025.1123046875	749.743408203125	-542.25244140625	-1136.030151367188	44.59955596923828	-588.4923706054688	-1047.51318359375	360.9925537109375	-578.6567993164062	-943.721923828125	45.02383422851562	-649.2796630859375	-1002.991638183594	40.79834365844727	-684.8213500976562	-1031.25439453125	36.7552604675293	-569.62353515625	-1190.30810546875	38.34984588623047	-635.3995361328125	
2	0.01	-1188.122680664062	1008.116882324219	-643.7409057617188	-1186.491577148438	1001.550964355469	-818.0711669921875	-1168.242919921875	1076.859741210938	-735.8968505859375	-912.325439453125	1248.292724609375	-741.6502685546875	-1180.207397460938	1190.796020507812	-739.4490966796875	-1128.009643554688	1434.07861328125	-759.8888549804688	-972.7713623046875	1349.345581054688	-747.8239135742188	-1183.4619140625	1299.238037109375	-680.9465942382812	-1140.752075195312	1395.609741210938	-864.2177124023438	-1048.894775390625	1399.8349609375	-916.02734375	-1073.50634765625	1279.106811523438	-985.9324951171875	-1065.130615234375	1073.988159179688	-994.8574829101562	-1131.709350585938	1063.227783203125	-939.126953125	-989.3287353515625	855.4277954101562	-930.6822509765625	-1020.585510253906	840.1675415039062	-996.576171875	-1051.36669921875	969.447021484375	-998.4193115234375	-983.8102416992188	668.204345703125	-932.353515625	-1015.213195800781	751.7025756835938	-991.3935546875	-944.7282104492188	768.3932495117188	-954.4107666015625	-1063.918090820312	1412.51123046875	-598.2911987304688	-1069.978759765625	1353.105224609375	-530.4151000976562	-1059.915649414062	1083.153076171875	-483.4091186523438	-1109.849731445312	1076.855712890625	-563.8858032226562	-948.0052490234375	875.129150390625	-576.1307983398438	-995.8845825195312	854.0371704101562	-482.2119140625	-1031.981323242188	1015.719116210938	-478.8906555175781	-961.9346313476562	676.3162841796875	-570.0066528320312	-936.1495971679688	746.2435302734375	-555.9763793945312	-971.6126708984375	743.755126953125	-494.7633056640625	-1115.02734375	1590.73583984375	-698.4117431640625	-930.1715087890625	1639.489379882812	-793.319091796875	-945.200927734375	1638.302734375	-701.1321411132812	-1090.386596679688	1582.541259765625	-842.2168579101562	-1118.9541015625	952.6119995117188	-913.5228881835938	-1085.71826171875	958.6217041015625	-541.238037109375	-969.1494750976562	961.8019409179688	-612.7106323242188	-993.7493896484375	948.5101928710938	-860.6739501953125	-1062.54638671875	487.6336059570312	-891.4346313476562	-1067.072875976562	630.6287841796875	-909.0496826171875	-1155.154174804688	48.26204299926758	-884.3956298828125	-1117.026977539062	264.986572265625	-897.4066772460938	-947.2061767578125	40.15259170532227	-828.7415771484375	-1016.76806640625	32.58281707763672	-786.9998779296875	-1033.3935546875	42.49369430541992	-899.7150268554688	-1199.885375976562	43.0228271484375	-824.017333984375	-1048.452514648438	484.41064453125	-567.5338134765625	-1024.032348632812	749.0659790039062	-543.482421875	-1136.051635742188	44.6444206237793	-588.5185546875	-1047.249145507812	360.9630737304688	-578.7589111328125	-943.6734008789062	44.99047470092773	-649.2998657226562	-1002.983581542969	40.78218841552734	-684.8366088867188	-1031.251098632812	36.77532577514648	-569.6485595703125	-1190.299072265625	38.37205123901367	-635.4144897460938	
3	0.02	-1187.893798828125	1008.033020019531	-643.8245849609375	-1186.283935546875	1001.448974609375	-818.1627197265625	-1168.076049804688	1076.760375976562	-735.97216796875	-912.2874755859375	1248.30712890625	-741.8569946289062	-1180.114501953125	1190.713012695312	-739.5355224609375	-1127.983032226562	1434.02099609375	-760.0546264648438	-972.7020263671875	1349.337890625	-748.064208984375	-1183.364135742188	1299.207397460938	-681.065673828125	-1140.730346679688	1395.52783203125	-864.3683471679688	-1048.958129882812	1399.734497070312	-916.2392578125	-1073.56494140625	1278.94580078125	-986.0706787109375	-1065.156982421875	1073.806274414062	-994.8899536132812	-1131.696044921875	1063.083129882812	-939.0902709960938	-989.3164672851562	855.3203735351562	-930.6122436523438	-1020.492797851562	840.0123291015625	-996.4646606445312	-1051.309448242188	969.2578125	-998.3859252929688	-983.6478271484375	668.0374145507812	-932.1220703125	-1015.240966796875	751.56787109375	-991.197509765625	-944.6427001953125	768.250732421875	-954.2211303710938	-1063.810180664062	1412.531372070312	-598.4625244140625	-1069.861328125	1353.146240234375	-530.5687255859375	-1059.831787109375	1083.213989257812	-483.4554443359375	-1109.66064453125	1076.857055664062	-563.9918823242188	-950.8206787109375	873.2561645507812	-574.1248168945312	-995.61962890625	854.085693359375	-482.1004943847656	-1031.845458984375	1015.779968261719	-478.8785705566406	-961.4288940429688	676.3994750976562	-569.851318359375	-935.7542724609375	746.3585205078125	-555.7905883789062	-971.3229370117188	743.8516845703125	-494.6677551269531	-1114.57470703125	1590.775146484375	-698.4661254882812	-929.7792358398438	1639.188110351562	-793.5040893554688	-944.7900390625	1637.980834960938	-701.3323974609375	-1090.131469726562	1582.589477539062	-842.3551635742188	-1118.658081054688	952.5344848632812	-913.615234375	-1085.451049804688	958.5681762695312	-541.3092651367188	-968.8633422851562	961.9082641601562	-612.8077392578125	-991.4891967773438	949.8861694335938	-861.19140625	-1062.101318359375	487.58837890625	-891.5194091796875	-1066.628051757812	630.5867919921875	-909.1232299804688	-1155.14111328125	48.26981735229492	-884.3948974609375	-1116.79345703125	264.9506225585938	-897.4404296875	-947.1691284179688	40.10288238525391	-828.7785034179688	-1016.764221191406	32.56950759887695	-786.9957275390625	-1033.28955078125	42.43380355834961	-899.7033081054688	-1199.865112304688	43.05121994018555	-824.0108032226562	-1048.111938476562	484.3802185058594	-567.626708984375	-1022.779907226562	748.2676391601562	-544.9142456054688	-1136.073120117188	44.69243240356445	-588.54931640625	-1046.967041015625	360.9338989257812	-578.8761596679688	-943.6256103515625	44.95952224731445	-649.3237915039062	-1002.973449707031	40.76250457763672	-684.85498046875	-1031.242065429688	36.79469299316406	-569.675048828125	-1190.28955078125	38.39404296875	-635.43310546875	
4	0.03	-1187.623413085938	1007.96142578125	-643.9315795898438	-1186.041870117188	1001.34423828125	-818.2835693359375	-1167.855834960938	1076.651245117188	-736.0650024414062	-912.2423095703125	1248.330810546875	-742.1033325195312	-1180.002197265625	1190.609252929688	-739.6437377929688	-1127.95166015625	1433.955810546875	-760.2401733398438	-972.639404296875	1349.34765625	-748.3460693359375	-1183.257080078125	1299.16845703125	-681.2094116210938	-1140.724853515625	1395.435668945312	-864.5425415039062	-1049.043701171875	1399.626342773438	-916.4834594726562	-1073.6328125	1278.778686523438	-986.234375	-1065.198974609375	1073.617919921875	-994.9279174804688	-1131.67529296875	1062.933349609375	-939.0458374023438	-989.3099975585938	855.1954956054688	-930.5321044921875	-1020.391174316406	839.8471069335938	-996.3390502929688	-1051.250122070312	969.0577392578125	-998.35400390625	-983.5121459960938	667.8821411132812	-931.8525390625	-1015.2451171875	751.423583984375	-990.9710693359375	-944.5311279296875	768.1181030273438	-954.0413818359375	-1063.693725585938	1412.557006835938	-598.6612548828125	-1069.72998046875	1353.198608398438	-530.7468872070312	-1059.710815429688	1083.296630859375	-483.5086059570312	-1109.423461914062	1076.861694335938	-564.1140747070312	-954.30615234375	871.006103515625	-571.6871337890625	-995.2887573242188	854.1614379882812	-481.9630126953125	-1031.654296875	1015.867553710938	-478.8536071777344	-960.8560791015625	676.5155639648438	-569.64990234375	-935.2720336914062	746.5155639648438	-555.5628051757812	-970.9500732421875	743.970703125	-494.513916015625	-1114.064331054688	1590.840454101562	-698.5401611328125	-929.3449096679688	1638.860473632812	-793.7171630859375	-944.333251953125	1637.6357421875	-701.5629272460938	-1089.8544921875	1582.646728515625	-842.5177001953125	-1118.322631835938	952.4507446289062	-913.72412109375	-1085.1611328125	958.5191040039062	-541.4075927734375	-968.5118408203125	962.0188598632812	-612.9222412109375	-988.6627197265625	951.6400146484375	-861.8445434570312	-1061.600952148438	487.5415954589844	-891.6201171875	-1066.109008789062	630.5321044921875	-909.2135009765625	-1155.12744140625	48.28023529052734	-884.3954467773438	-1116.502319335938	264.9034729003906	-897.4808349609375	-947.1261596679688	40.04442596435547	-828.8131103515625	-1016.7607421875	32.55197906494141	-786.9885864257812	-1033.165771484375	42.36251068115234	-899.6884765625	-1199.847290039062	43.08857345581055	-824.00732421875	-1047.792846679688	484.350830078125	-567.7362060546875	-1021.465698242188	747.4157104492188	-546.4241333007812	-1136.089965820312	44.73694610595703	-588.5816650390625	-1046.70263671875	360.9117126464844	-578.9983520507812	-943.588134765625	44.93800354003906	-649.3489379882812	-1002.962280273438	40.74092483520508	-684.8751831054688	-1031.227172851562	36.81121444702148	-569.7005615234375	-1190.280517578125	38.41274642944336	-635.454345703125	
